<?xml version="1.0" standalone="no"?><!DOCTYPE svg PUBLIC "-//W3C//DTD SVG 1.1//EN" "http://www.w3.org/Graphics/SVG/1.1/DTD/svg11.dtd"><svg t="1538102592846" class="icon" style="" viewBox="0 0 1024 1024" version="1.1" xmlns="http://www.w3.org/2000/svg" p-id="2850" xmlns:xlink="http://www.w3.org/1999/xlink" width="200" height="200"><defs><style type="text/css"></style></defs><path d="M0 0h1024v1024H0z" fill="#FFFFFF" p-id="2851"></path><path d="M992.374294 127.983178c-45.890919-30.145354-120.043107 45.083454-182.890788 81.284794-134.308319 77.382048-273.32685 77.112893-297.550795 77.112893s-163.242476 0.269155-297.550795-77.112893c-62.84768-36.335918-136.865291-111.430149-182.75621-81.284794-34.182678 22.474438-1.884085 89.763175-1.884084 89.763175L217.208043 578.683138s75.228808 144.670785 121.119727 118.697332c55.849652-31.491129 67.019582-148.438954 173.604941-148.438953s117.75529 116.947825 173.604942 148.438953c46.025496 25.973452 121.119727-118.697332 121.119726-118.697332l187.600999-361.071362c0 0.134577 32.298594-67.288737-1.884084-89.628598zM560.380602 779.338152h-96.626626c-30.549087 0-47.371271 22.878171-27.72296 48.044158l44.006834 54.3693c16.687607 18.033382 21.936128 19.513734 32.029439 19.513734s15.341832-1.480352 32.029439-19.513734l44.006834-54.3693c19.513734-25.165988 2.826127-48.044158-27.72296-48.044158z" fill="#42b983" p-id="2852" data-spm-anchor-id="a313x.7781069.0.i7" class="selected"></path></svg>